<!--?xml version="1.0" encoding="utf-8"?-->
<!-- Generator: Adobe Illustrator 19.1.1, SVG Export Plug-In . SVG Version: 6.00 Build 0)  -->
<svg version="1.1" id="_x31_0" xmlns="http://www.w3.org/2000/svg" xmlns:xlink="http://www.w3.org/1999/xlink" x="0px" y="0px" viewBox="0 0 512 512" style="width: 256px; height: 256px; opacity: 1;" xml:space="preserve">
<style type="text/css">
	.st0{fill:#374149;}
</style>
<g>
	<path class="st0" d="M511.664,330.215V123.488c0-11.383-9.23-20.614-20.617-20.614H217.766c-11.386,0-20.614,9.23-20.614,20.614
		H93.043c-4.84,0-9.493,1.886-12.969,5.258l-5.058,4.906c-1.07,1.039-2.012,2.203-2.809,3.465l-57.168,91l-4.531,6.722v60.043
		C4.348,297.468,0,303.562,0,310.664v38.813h10.508v27.484v0.086l0,0v0.156h36.816v8.457H98.07
		c10.148,14.199,26.754,23.466,45.496,23.466c18.742,0,35.359-9.266,45.508-23.466h160.32
		c10.149,14.199,26.754,23.466,45.496,23.466c18.742,0,35.36-9.266,45.508-23.466h39.68l21.648-37.598h9.715h0.062l0,0h0.16v-17.258
		l0.336-0.59H511.664z M68.996,370.285l-4.363-0.031l5.527-24.664h16.023l2.004,0.019c-0.222,1.656-0.374,3.344-0.457,5.039
		c-0.043,0.867-0.058,1.718-0.058,2.586c0,3.664,0.351,7.242,1.035,10.691c0.343,1.774,0.82,3.493,1.324,5.2
		c0.094,0.394,0.172,0.758,0.262,1.16H68.996z M54.55,308.914v25.187H37.066H23.785h-8.414v-23.438c0-0.965,0.785-1.75,1.75-1.75
		h6.664h13.282H54.55z M174.047,370.285c-1.566,2.84-3.535,5.41-5.813,7.687c-3.313,3.301-7.27,5.926-11.684,7.687
		c-4.011,1.622-8.386,2.504-12.984,2.504c-4.586,0-8.973-0.882-12.984-2.504c-4.402-1.762-8.375-4.402-11.672-7.687
		c-2.278-2.278-4.25-4.847-5.813-7.687c-0.617-1.062-1.16-2.153-1.637-3.286c-1.816-4.218-2.824-8.874-2.824-13.766
		c0-1.09,0.058-2.152,0.156-3.214c0.125-1.508,0.363-2.989,0.695-4.43c0.59-2.699,1.496-5.27,2.699-7.688
		c1.356-2.793,3.074-5.367,5.118-7.687c3.199-3.66,7.168-6.653,11.641-8.707c4.445-2.066,9.406-3.215,14.621-3.215
		c5.226,0,10.172,1.149,14.617,3.215c4.489,2.054,8.458,5.047,11.657,8.707c1.258,1.426,2.406,2.949,3.398,4.57
		c0.629,1.007,1.214,2.042,1.718,3.117c1.203,2.418,2.11,4.989,2.695,7.688c0.196,0.808,0.352,1.636,0.462,2.472
		c0.266,1.692,0.394,3.41,0.394,5.172C178.508,359.425,176.886,365.254,174.047,370.285z M69.39,215.804l30.344-47.882
		c1.41-2.223,3.871-3.578,6.512-3.578h59.527c4.25,0,7.699,3.453,7.699,7.699v47.882c0,4.266-3.45,7.703-7.699,7.703H75.906
		C69.824,227.628,66.149,220.933,69.39,215.804z M171.602,264.597c0,1.09-0.434,2.082-1.16,2.794
		c-0.699,0.714-1.691,1.16-2.782,1.16h-19.61c-2.179,0-3.941-1.774-3.941-3.954c0-1.09,0.449-2.082,1.148-2.781
		c0.726-0.73,1.703-1.16,2.793-1.16h19.61C169.84,260.656,171.602,262.414,171.602,264.597z M214.442,307.281h-1.328h-6.95V158.613
		h6.95h1.328v148.375V307.281z M267.996,280.32c-0.402,1.007-0.977,1.898-1.718,2.656c-0.754,0.766-1.676,1.367-2.782,1.801
		c-1.09,0.434-2.332,0.656-3.703,0.656h-5.129v10.035h-5.199v-26.664h10.328c1.371,0,2.614,0.222,3.703,0.656
		c1.106,0.434,2.027,1.031,2.782,1.79c0.742,0.766,1.316,1.648,1.718,2.668c0.406,1.007,0.602,2.07,0.602,3.199
		C268.598,278.238,268.402,279.312,267.996,280.32z M269.11,348.117l-7.961,22.168h-49.731l-14.605-0.047
		c1.722-5.367,2.66-11.082,2.66-17.004c0-1.746-0.086-3.465-0.254-5.172h26.57h32.223L269.11,348.117z M413.855,295.468v-26.664
		h5.215v26.664H413.855z M443.957,277.008h-5.266c-0.277-1.106-0.77-2.012-1.469-2.711c-0.695-0.714-1.687-1.078-2.988-1.078
		c-0.726,0-1.371,0.125-1.93,0.378c-0.558,0.25-1.035,0.586-1.41,1.004c-0.238,0.282-0.449,0.59-0.617,0.938
		c-0.153,0.352-0.294,0.813-0.391,1.355c-0.098,0.547-0.168,1.246-0.222,2.07c-0.058,0.836-0.07,1.898-0.07,3.172
		c0,1.274,0.012,2.321,0.07,3.16c0.054,0.836,0.125,1.535,0.222,2.082c0.098,0.543,0.238,0.992,0.391,1.34
		c0.168,0.351,0.378,0.672,0.617,0.938c0.375,0.434,0.852,0.769,1.41,1.019c0.558,0.254,1.203,0.379,1.93,0.379
		c1.301,0,2.305-0.363,3.019-1.078c0.246-0.246,0.317-0.649,0.508-0.942c0.219-0.324,0.418-0.699,0.594-1.098
		c0.094-0.25,0.297-0.398,0.363-0.672h4.661l0.617,0.024c-0.504,2.781-1.617,4.886-3.375,6.281c-1.762,1.41-3.886,2.125-6.386,2.125
		c-1.551,0-2.894-0.254-4.039-0.726c-1.16-0.492-2.195-1.191-3.117-2.086c-0.672-0.668-1.188-1.367-1.551-2.094
		c-0.363-0.727-0.629-1.524-0.785-2.375c-0.168-0.867-0.266-1.805-0.305-2.84c-0.027-1.019-0.058-2.164-0.058-3.438
		c0-1.274,0.031-2.418,0.058-3.453c0.039-1.02,0.137-1.958,0.305-2.825c0.156-0.863,0.422-1.648,0.785-2.374
		c0.363-0.726,0.879-1.426,1.551-2.094c0.922-0.899,1.957-1.594,3.117-2.086c1.145-0.488,2.488-0.726,4.039-0.726
		c2.5,0,4.625,0.699,6.386,2.114c1.528,1.222,2.485,3.078,3.062,5.347C443.754,276.383,443.91,276.636,443.957,277.008z
		 M320.606,370.285l-6.844-0.051l7.961-22.172h16.004l1.524,0.016c-0.168,1.699-0.254,3.414-0.254,5.156
		c0,5.359,0.859,10.512,2.274,15.426c0.137,0.543,0.199,1.086,0.347,1.626H320.606z M317.238,273.445v-4.641h19.145v4.641h-6.973
		v22.023h-5.199v-22.023H317.238z M409.328,273.445h-12.355V280h10.523v4.641h-10.523v10.828h-5.215v-26.664h17.57V273.445z
		 M374.875,273.445V280h10.523v4.641h-10.523v10.828h-5.199v-26.664h17.554v4.641H374.875z M393.715,208.773h-28.962h-0.09l0,0
		h-0.16v31.645h-14.606v-31.645h-29.211v-14.606h73.028V208.773z M345.008,288.414c-0.153-0.867-0.266-1.805-0.293-2.84
		c-0.043-1.019-0.055-2.164-0.055-3.438c0-1.274,0.012-2.418,0.055-3.453c0.027-1.02,0.14-1.958,0.293-2.825
		c0.168-0.863,0.434-1.648,0.781-2.374c0.363-0.726,0.883-1.426,1.566-2.094c0.895-0.899,1.93-1.594,3.09-2.086
		c1.16-0.488,2.515-0.726,4.05-0.726c1.554,0,2.91,0.238,4.054,0.726c1.149,0.492,2.168,1.187,3.074,2.086
		c0.672,0.667,1.188,1.367,1.551,2.094c0.367,0.726,0.629,1.511,0.797,2.374c0.183,0.867,0.281,1.805,0.324,2.825
		c0.039,1.035,0.054,2.179,0.054,3.453c0,1.274-0.015,2.418-0.054,3.438c-0.043,1.035-0.141,1.973-0.324,2.84
		c-0.168,0.851-0.43,1.648-0.797,2.375c-0.363,0.726-0.879,1.426-1.551,2.094c-0.906,0.894-1.926,1.594-3.074,2.086
		c-1.144,0.473-2.5,0.726-4.054,0.726c-1.535,0-2.89-0.254-4.05-0.726c-1.161-0.492-2.195-1.191-3.09-2.086
		c-0.683-0.668-1.203-1.367-1.566-2.094C345.442,290.062,345.176,289.265,345.008,288.414z M364.422,370.285
		c-2.839-5.031-4.457-10.86-4.457-17.051c0-1.762,0.125-3.48,0.39-5.172c0.11-0.836,0.266-1.664,0.462-2.472
		c0.586-2.699,1.496-5.27,2.695-7.688c0.504-1.074,1.09-2.11,1.718-3.117c0.992-1.622,2.141-3.145,3.398-4.57
		c3.199-3.66,7.168-6.653,11.641-8.707c4.446-2.066,9.406-3.215,14.621-3.215c5.226,0,10.176,1.149,14.618,3.215
		c4.488,2.054,8.457,5.047,11.656,8.707c1.262,1.426,2.406,2.949,3.398,4.57c0.629,1.007,1.215,2.042,1.719,3.117
		c1.202,2.418,2.109,4.989,2.699,7.688c0.195,0.808,0.347,1.636,0.461,2.472c0.266,1.692,0.39,3.41,0.39,5.172
		c0,6.191-1.621,12.02-4.461,17.051c-1.562,2.84-3.535,5.41-5.813,7.687c-3.312,3.301-7.27,5.926-11.683,7.687
		c-4.012,1.622-8.387,2.504-12.985,2.504c-4.586,0-8.973-0.882-12.984-2.504c-4.402-1.762-8.371-4.402-11.672-7.687
		C367.957,375.695,365.988,373.125,364.422,370.285z M320.687,185.824v-14.618h73.028v14.618H320.75H320.687z M313.637,271.688
		l-3.289,3.25c-0.313-0.297-0.688-0.351-1.016-0.566c-0.242-0.164-0.492-0.301-0.742-0.418c-0.32-0.141-0.602-0.45-0.941-0.524
		c-0.966-0.21-1.887-0.32-2.766-0.32c-1.399,0-2.434,0.336-3.09,0.992c-0.656,0.657-0.992,1.454-0.992,2.375
		c0,0.348,0.054,0.683,0.168,1.019c0.114,0.321,0.309,0.614,0.586,0.895c0.266,0.25,0.602,0.461,0.993,0.644
		c0.378,0.168,0.867,0.293,1.441,0.363l3.184,0.489c1.218,0.179,2.222,0.418,3.035,0.754c0.797,0.32,1.48,0.77,2.054,1.344
		c0.726,0.656,1.242,1.453,1.578,2.402c0.32,0.949,0.477,2.011,0.477,3.214c0,1.301-0.238,2.446-0.742,3.454
		c-0.504,0.992-1.203,1.828-2.082,2.515c-0.878,0.699-1.93,1.215-3.144,1.578c-1.215,0.363-2.516,0.546-3.914,0.546
		c-2.027,0-3.828-0.254-5.406-0.77c-1.554-0.503-2.961-1.394-4.234-2.671c-0.031-0.035-0.066-0.051-0.094-0.086l3.363-3.363
		c0.852,0.852,1.828,1.438,2.934,1.758c1.09,0.325,2.25,0.493,3.481,0.493c1.566,0,2.754-0.294,3.55-0.867
		c0.797-0.574,1.199-1.398,1.199-2.473c0-0.926-0.277-1.664-0.824-2.211c-0.278-0.25-0.57-0.434-0.894-0.558
		c-0.336-0.125-0.825-0.238-1.496-0.336l-3.184-0.488c-1.203-0.184-2.211-0.45-3.035-0.809c-0.824-0.367-1.535-0.828-2.137-1.398
		c-1.273-1.23-1.914-2.977-1.914-5.242c0-1.203,0.222-2.293,0.641-3.285c0.422-0.977,1.034-1.832,1.832-2.543
		c0.797-0.711,1.773-1.274,2.922-1.664c1.145-0.406,2.446-0.602,3.898-0.602c1.844,0,3.453,0.238,4.836,0.714
		c1.328,0.462,2.546,1.238,3.664,2.301C313.57,271.632,313.606,271.652,313.637,271.688z M303.519,348.117l-7.945,22.168h-12.293
		l-3.93-0.051l7.962-22.172h12.105L303.519,348.117z M291.715,285.574c-0.028,1.035-0.141,1.973-0.305,2.84
		c-0.184,0.851-0.45,1.648-0.813,2.375c-0.363,0.726-0.882,1.426-1.55,2.094c-0.91,0.894-1.93,1.594-3.074,2.086
		c-1.149,0.473-2.504,0.726-4.039,0.726c-1.554,0-2.91-0.254-4.07-0.726c-1.156-0.492-2.191-1.191-3.086-2.086
		c-0.672-0.668-1.188-1.367-1.555-2.094c-0.359-0.727-0.625-1.524-0.793-2.375c-0.156-0.867-0.254-1.805-0.293-2.84
		c-0.043-1.019-0.058-2.164-0.058-3.438c0-1.274,0.015-2.418,0.058-3.453c0.039-1.02,0.137-1.958,0.293-2.825
		c0.168-0.863,0.434-1.648,0.793-2.374c0.367-0.726,0.883-1.426,1.555-2.094c0.894-0.899,1.93-1.594,3.086-2.086
		c1.16-0.488,2.516-0.726,4.07-0.726c1.535,0,2.89,0.238,4.039,0.726c1.144,0.492,2.164,1.187,3.074,2.086
		c0.668,0.667,1.187,1.367,1.55,2.094c0.363,0.726,0.629,1.511,0.813,2.374c0.164,0.867,0.277,1.805,0.305,2.825
		c0.042,1.035,0.054,2.179,0.054,3.453C291.77,283.41,291.758,284.555,291.715,285.574z M466.058,273.445h-12.355v6.258h10.523
		v4.641h-10.523v6.473h12.355v4.652h-17.554v-26.664h17.554V273.445z" style="fill: rgb(223, 86, 86);"></path>
	<path class="st0" d="M286.266,276.894c-0.098-0.542-0.222-0.992-0.39-1.328c-0.157-0.336-0.363-0.641-0.618-0.922
		c-0.374-0.418-0.84-0.77-1.398-1.035c-0.57-0.25-1.214-0.39-1.926-0.39c-0.726,0-1.371,0.14-1.93,0.39
		c-0.558,0.266-1.047,0.617-1.442,1.035c-0.25,0.281-0.461,0.586-0.629,0.922c-0.152,0.336-0.293,0.786-0.39,1.328
		c-0.098,0.547-0.168,1.246-0.211,2.07c-0.027,0.836-0.054,1.898-0.054,3.172c0,1.274,0.027,2.321,0.054,3.16
		c0.043,0.836,0.114,1.524,0.211,2.066c0.098,0.531,0.238,0.965,0.39,1.301c0.168,0.348,0.379,0.641,0.629,0.922
		c0.394,0.418,0.883,0.77,1.442,1.046c0.558,0.282,1.203,0.422,1.93,0.422c0.711,0,1.355-0.141,1.926-0.422
		c0.558-0.277,1.024-0.629,1.398-1.046c0.254-0.282,0.461-0.574,0.618-0.922c0.168-0.336,0.293-0.77,0.39-1.301
		c0.114-0.542,0.18-1.23,0.238-2.066c0.039-0.839,0.07-1.886,0.07-3.16c0-1.274-0.031-2.336-0.07-3.172
		C286.446,278.14,286.379,277.441,286.266,276.894z" style="fill: rgb(223, 86, 86);"></path>
	<path class="st0" d="M259.527,273.445h-4.863v7.309h4.863c1.203,0,2.153-0.336,2.836-0.993c0.687-0.671,1.023-1.55,1.023-2.644
		c0-1.102-0.336-1.985-1.023-2.653C261.68,273.777,260.73,273.445,259.527,273.445z" style="fill: rgb(223, 86, 86);"></path>
	<path class="st0" d="M350.121,287.363c0.102,0.531,0.227,0.965,0.395,1.301c0.167,0.348,0.363,0.641,0.613,0.922
		c0.406,0.418,0.883,0.77,1.442,1.046c0.574,0.282,1.214,0.422,1.926,0.422c0.726,0,1.371-0.141,1.93-0.422
		c0.574-0.277,1.035-0.629,1.414-1.046c0.25-0.282,0.445-0.574,0.613-0.922c0.168-0.336,0.294-0.77,0.391-1.301
		c0.098-0.542,0.183-1.23,0.222-2.066c0.058-0.839,0.086-1.886,0.086-3.16c0-1.274-0.027-2.336-0.086-3.172
		c-0.039-0.824-0.125-1.523-0.222-2.07c-0.098-0.542-0.223-0.992-0.391-1.328s-0.363-0.641-0.613-0.922
		c-0.379-0.418-0.84-0.77-1.414-1.035c-0.558-0.25-1.203-0.39-1.93-0.39c-0.711,0-1.351,0.14-1.926,0.39
		c-0.558,0.266-1.035,0.617-1.442,1.035c-0.25,0.281-0.446,0.586-0.613,0.922c-0.168,0.336-0.294,0.786-0.395,1.328
		c-0.094,0.547-0.164,1.246-0.206,2.07c-0.028,0.836-0.055,1.898-0.055,3.172c0,1.274,0.027,2.321,0.055,3.16
		C349.957,286.132,350.027,286.82,350.121,287.363z" style="fill: rgb(223, 86, 86);"></path>
	<path class="st0" d="M165.102,345.59c-1.019-2.864-2.598-5.481-4.598-7.688c-1.047-1.144-2.207-2.195-3.465-3.117
		c-3.774-2.766-8.442-4.402-13.473-4.402c-5.031,0-9.687,1.637-13.461,4.402c-1.274,0.922-2.43,1.973-3.465,3.117
		c-2,2.207-3.594,4.824-4.598,7.688c-0.867,2.39-1.328,4.961-1.328,7.644c0,1.062,0.07,2.11,0.222,3.133
		c0.754,5.504,3.48,10.383,7.449,13.918c4.039,3.594,9.352,5.789,15.18,5.789s11.152-2.195,15.191-5.789
		c4.695-4.192,7.66-10.286,7.66-17.051c0-1.774-0.21-3.508-0.59-5.172C165.633,347.211,165.394,346.387,165.102,345.59z" style="fill: rgb(223, 86, 86);"></path>
	<path class="st0" d="M410.082,370.285c4.695-4.192,7.66-10.286,7.66-17.051c0-1.774-0.211-3.508-0.59-5.172
		c-0.195-0.851-0.43-1.675-0.726-2.472c-1.019-2.864-2.598-5.481-4.598-7.688c-1.046-1.144-2.207-2.195-3.465-3.117
		c-3.774-2.766-8.442-4.402-13.473-4.402c-5.031,0-9.687,1.637-13.461,4.402c-1.27,0.922-2.43,1.973-3.465,3.117
		c-2,2.207-3.594,4.824-4.598,7.688c-0.293,0.797-0.547,1.621-0.726,2.472c-0.394,1.664-0.602,3.398-0.602,5.172
		c0,6.766,2.961,12.859,7.672,17.051c4.039,3.594,9.351,5.789,15.179,5.789S406.043,373.879,410.082,370.285z" style="fill: rgb(223, 86, 86);"></path>
</g>
</svg>
